<svg preserveAspectRatio="none" width="100%" height="100%" overflow="visible" style="display: block;" viewBox="0 0 26 26" fill="none" xmlns="http://www.w3.org/2000/svg">
<g id="Frame 1618873746">
<rect width="26" height="26" rx="6" fill="var(--fill-0, black)" fill-opacity="0.4"/>
<path id="Vector" d="M9.85186 9.14518C10.0473 9.34061 10.0473 9.65646 9.85186 9.85184C9.7544 9.94935 9.62649 9.99829 9.49852 9.99829C9.37055 9.99829 9.24264 9.94935 9.14518 9.8519L6.99957 7.70629V8.49898C6.99957 8.77484 6.77565 8.99876 6.49978 8.99876C6.22392 8.99876 6 8.77484 6 8.49898V6.49984C6 6.22397 6.22392 6.00005 6.49978 6.00005H8.49892C8.77479 6.00005 8.99871 6.22397 8.99871 6.49984C8.99871 6.77571 8.77479 6.99962 8.49892 6.99962L7.70624 6.99957L9.85186 9.14518ZM9.14519 16.1482L6.99958 18.2938V17.5011C6.99958 17.2247 6.77567 17.0013 6.4998 17.0013C6.22393 17.0013 6.00001 17.2247 6.00001 17.5011V19.5002C6.00001 19.7766 6.22393 20 6.4998 20H8.49894C8.77481 20 8.99872 19.7766 8.99872 19.5002C8.99872 19.2238 8.77481 19.0004 8.49894 19.0004L7.70625 19.0005L9.85186 16.8549C10.0473 16.6594 10.0473 16.3436 9.85186 16.1482C9.65648 15.9528 9.34057 15.9528 9.14519 16.1482ZM19.5002 6H17.5011C17.2247 6 17.0013 6.22392 17.0013 6.49978C17.0013 6.77565 17.2247 6.99957 17.5011 6.99957H18.2937L16.1481 9.14518C15.9527 9.34061 15.9527 9.65646 16.1481 9.85184C16.2456 9.9493 16.3736 9.99829 16.5015 9.99829C16.6294 9.99829 16.7574 9.9493 16.8548 9.85184L19.0004 7.70624V8.49892C19.0004 8.77479 19.2238 8.99871 19.5002 8.99871C19.7766 8.99871 20 8.77479 20 8.49892V6.49978C20 6.22392 19.7761 6 19.5002 6ZM19.5002 17.0013C19.2238 17.0013 19.0004 17.2247 19.0004 17.501V18.2937L16.8548 16.1481C16.6594 15.9527 16.3435 15.9527 16.1481 16.1481C15.9527 16.3435 15.9527 16.6594 16.1481 16.8548L18.2937 19.0004H17.5011C17.2247 19.0004 17.0013 19.2238 17.0013 19.5002C17.0013 19.7766 17.2247 20 17.5011 20H19.5002C19.7766 20 20 19.7766 20 19.5002V17.501C20 17.2247 19.7761 17.0013 19.5002 17.0013ZM14.9961 12.9975C14.9961 14.1001 14.0996 14.9967 12.997 14.9967C11.8944 14.9967 10.9979 14.1001 10.9979 12.9975C10.9979 11.895 11.8944 10.9984 12.997 10.9984C14.0996 10.9984 14.9961 11.895 14.9961 12.9975ZM13.9966 12.9975C13.9966 12.4462 13.5483 11.9979 12.997 11.9979C12.4457 11.9979 11.9974 12.4462 11.9974 12.9975C11.9974 13.5488 12.4457 13.9971 12.997 13.9971C13.5483 13.9971 13.9966 13.5488 13.9966 12.9975Z" fill="var(--fill-0, white)"/>
</g>
</svg>
