<svg preserveAspectRatio="none" width="100%" height="100%" overflow="visible" style="display: block;" viewBox="0 0 14 7.26415" fill="none" xmlns="http://www.w3.org/2000/svg">
<path id="Vector" opacity="0.5" d="M6.95149 0.000660253C6.77398 0.0117708 6.60656 0.0834863 6.47545 0.202672L0.278856 5.89134C0.115468 6.02769 0.0156299 6.22466 0.00149391 6.43676C-0.0116173 6.64887 0.0620077 6.85694 0.205224 7.01351C0.349448 7.17007 0.551157 7.25998 0.76296 7.26299C0.974759 7.26703 1.17949 7.1832 1.32775 7.03068L7 1.82793L12.6722 7.03176C12.8205 7.18327 13.0252 7.26711 13.237 7.26407C13.4488 7.26003 13.6506 7.17013 13.7948 7.01357C13.938 6.85802 14.0116 6.64894 13.9985 6.43682C13.9844 6.22572 13.8845 6.02776 13.7211 5.89239L7.52455 0.203728C7.36923 0.0613087 7.16248 -0.0124198 6.95169 0.00171569L6.95149 0.000660253Z" fill="var(--fill-0, #1C1A17)"/>
</svg>
